<svg width="60" height="40" viewBox="0 0 60 40" fill="none" xmlns="http://www.w3.org/2000/svg">
<path fill-rule="evenodd" clip-rule="evenodd" d="M40 0C51.0457 0 60 8.9543 60 20C60 31.0457 51.0457 40 40 40C36.3569 40 32.9418 39.0251 30 37.3232C27.0582 39.0251 23.6431 40 20 40C8.9543 40 0 31.0457 0 20C0 8.9543 8.9543 0 20 0C23.6429 0 27.0583 0.974059 30 2.67578C32.9417 0.974059 36.3571 0 40 0ZM20 4C11.1634 4 4 11.1634 4 20C4 28.8366 11.1634 36 20 36C22.2771 36 24.4424 35.5225 26.4033 34.665C22.4655 31.0124 20 25.7946 20 20C20 14.2051 22.4652 8.98664 26.4033 5.33398C24.4424 4.47664 22.277 4 20 4ZM40 4C37.7227 4 35.5568 4.47642 33.5957 5.33398C37.5341 8.98667 40 14.2049 40 20C40 25.7949 37.5338 31.0124 33.5957 34.665C35.5569 35.5227 37.7226 36 40 36C48.8366 36 56 28.8366 56 20C56 11.1634 48.8366 4 40 4ZM30 7.50977C26.3423 10.442 24 14.9473 24 20C24 25.0524 26.3426 29.557 30 32.4893C33.6574 29.557 36 25.0524 36 20C36 14.9473 33.6577 10.442 30 7.50977Z" fill="black"/>
</svg>
